<svg width="700" height="500" viewBox="0 0 700 500" fill="none" xmlns="http://www.w3.org/2000/svg">
<path d="M0 0H700V500H0V0Z" fill="#384E54"/>
<path fill-rule="evenodd" clip-rule="evenodd" d="M330.464 500H0V359H35.0097C46.4898 359 57.4998 363.561 65.6179 371.68L80.8785 386.942C88.9966 395.062 100.007 399.623 111.487 399.623H212.974C224.454 399.623 235.465 404.184 243.583 412.303L328.141 496.872C329.072 497.804 329.852 498.859 330.464 500Z" fill="#76E1FE"/>
<path fill-rule="evenodd" clip-rule="evenodd" d="M473.288 116.238L415.158 58.1018V58.1013C413.523 56.4659 412.225 54.5243 411.34 52.3874C410.455 50.2505 410 47.9602 410 45.6473C410 35.9205 417.884 28.0356 427.609 28.0356C429.921 28.0356 432.211 27.5801 434.347 26.6949C436.484 25.8097 438.425 24.5123 440.06 22.8767C446.294 16.6408 446.876 6.89138 441.804 0H700V224H665.427C653.947 223.999 642.937 219.438 634.82 211.319L565.107 141.599C556.989 133.479 545.979 128.918 534.499 128.918H503.897C492.416 128.918 481.406 124.357 473.288 116.238Z" fill="#76E1FE"/>
<path d="M155.951 233.112C154.097 229.829 155.435 225.563 158.94 223.583C162.445 221.604 166.789 222.662 168.643 225.945C170.497 229.229 169.159 233.495 165.654 235.474C162.149 237.453 157.805 236.395 155.951 233.112Z" fill="#384E54"/>
<path d="M122.049 233.112C123.903 229.829 122.565 225.563 119.06 223.584C115.555 221.605 111.211 222.662 109.357 225.945C107.503 229.229 108.841 233.495 112.346 235.474C115.851 237.453 120.195 236.396 122.049 233.112Z" fill="#384E54"/>
<path d="M139.086 220.569C136.977 220.589 134.87 220.663 132.761 220.741C121.443 221.16 112.207 230.164 112.207 241.547V279.696H165.615V241.547C165.615 230.163 156.712 221.536 145.415 220.741C143.306 220.592 141.195 220.552 139.086 220.569Z" fill="#384E54"/>
<path d="M117.181 227.593C118.058 228.088 120.649 229.884 120.96 230.736C121.31 231.697 121.264 232.769 120.741 233.695C120.08 234.865 118.823 235.504 117.505 235.481C116.857 235.462 114.224 234.266 113.609 233.918C111.745 232.866 111.033 230.596 112.019 228.849C113.005 227.102 115.317 226.54 117.181 227.593Z" fill="#76E1FE"/>
<path d="M140.568 247.884H137.062C136.404 247.884 135.871 248.417 135.871 249.075V253.429C135.871 254.087 136.404 254.62 137.062 254.62H140.568C141.225 254.62 141.758 254.087 141.758 253.429V249.075C141.758 248.417 141.225 247.884 140.568 247.884Z" fill="black" fill-opacity="0.328502"/>
<path d="M138.911 224.38C121.744 224.38 116.022 231.467 116.022 241.547V279.696H161.8C161.707 265.665 161.8 245.362 161.8 241.547C161.8 231.467 156.078 224.38 138.911 224.38Z" fill="#76E1FE"/>
<path d="M160.034 227.593C159.157 228.088 156.566 229.884 156.255 230.736C155.906 231.697 155.951 232.769 156.474 233.695C157.135 234.865 158.392 235.504 159.71 235.481C160.358 235.462 162.991 234.266 163.606 233.918C165.47 232.866 166.182 230.596 165.196 228.849C164.21 227.102 161.899 226.54 160.034 227.593Z" fill="#76E1FE"/>
<path d="M148.783 246.594C153.686 246.594 157.66 242.62 157.66 237.717C157.66 232.815 153.686 228.841 148.783 228.841C143.881 228.841 139.907 232.815 139.907 237.717C139.907 242.62 143.881 246.594 148.783 246.594Z" fill="white"/>
<path d="M128.114 246.933C133.204 246.933 137.33 242.807 137.33 237.717C137.33 232.628 133.204 228.501 128.114 228.501C123.024 228.501 118.898 232.628 118.898 237.717C118.898 242.807 123.024 246.933 128.114 246.933Z" fill="white"/>
<path d="M140.928 248.329H136.702C135.937 248.329 135.317 248.949 135.317 249.713V254.777C135.317 255.541 135.937 256.161 136.702 256.161H140.928C141.692 256.161 142.312 255.541 142.312 254.777V249.713C142.312 248.949 141.692 248.329 140.928 248.329Z" fill="black" fill-opacity="0.329412"/>
<path d="M140.928 247.009H136.702C135.937 247.009 135.317 247.629 135.317 248.393V253.457C135.317 254.221 135.937 254.841 136.702 254.841H140.928C141.692 254.841 142.312 254.221 142.312 253.457V248.393C142.312 247.629 141.692 247.009 140.928 247.009Z" fill="#FFFCFB"/>
<path d="M146.54 249.495C146.54 251.094 144.878 251.914 142.449 251.719C142.404 251.719 142.358 250.574 141.964 250.607C141.004 250.687 139.874 250.568 138.748 250.568C137.579 250.568 136.447 250.917 135.534 250.601C135.323 250.529 135.193 251.714 135.035 251.71C132.662 251.647 131.069 251.065 131.069 249.494C131.069 247.183 134.533 245.309 138.805 245.309C143.077 245.309 146.54 247.184 146.54 249.495Z" fill="black" fill-opacity="0.329412"/>
<path d="M146.498 247.915C146.498 248.999 145.67 249.546 144.327 249.822C143.77 249.937 143.124 250.006 142.412 250.045C141.336 250.106 140.108 250.104 138.805 250.104C137.521 250.104 136.311 250.104 135.248 250.049C134.663 250.016 134.123 249.967 133.639 249.888C132.087 249.637 131.112 249.093 131.112 247.915C131.112 245.703 134.556 243.909 138.805 243.909C143.053 243.909 146.498 245.702 146.498 247.915Z" fill="#C38C74"/>
<path d="M138.805 246.949C140.996 246.949 142.773 245.801 142.773 244.386C142.773 242.97 140.996 241.822 138.805 241.822C136.613 241.822 134.837 242.97 134.837 244.386C134.837 245.801 136.613 246.949 138.805 246.949Z" fill="#23201F"/>
<path d="M132.071 241.462C134.139 241.462 135.816 239.785 135.816 237.717C135.816 235.649 134.139 233.973 132.071 233.973C130.003 233.973 128.327 235.649 128.327 237.717C128.327 239.785 130.003 241.462 132.071 241.462Z" fill="#171311"/>
<path d="M152.473 241.462C154.541 241.462 156.217 239.785 156.217 237.717C156.217 235.649 154.541 233.973 152.473 233.973C150.405 233.973 148.729 235.649 148.729 237.717C148.729 239.785 150.405 241.462 152.473 241.462Z" fill="#171311"/>
<path d="M117.94 231.84C115.707 229.773 114.073 230.367 114.04 230.416" stroke="#384E54" stroke-width="0.397309" stroke-linecap="round"/>
<path d="M116.756 231.158C114.547 231.226 114.188 232.36 114.203 232.402M159.188 231.648C161.421 229.582 163.054 230.176 163.087 230.225" stroke="#384E54" stroke-width="0.397309" stroke-linecap="round"/>
<path d="M160.506 230.696C162.716 230.764 163.075 231.898 163.06 231.94" stroke="#384E54" stroke-width="0.397309" stroke-linecap="round"/>
<path d="M183.96 289.64V283.88H191.4C192.744 283.88 193.768 283.544 194.472 282.872C195.208 282.2 195.576 281.272 195.576 280.088V279.08L195.624 275.144C194.984 276.552 194.072 277.64 192.888 278.408C191.704 279.176 190.296 279.56 188.664 279.56C186.008 279.56 183.88 278.632 182.28 276.776C180.68 274.92 179.88 272.408 179.88 269.24V264.44C179.88 261.304 180.68 258.808 182.28 256.952C183.88 255.064 186.008 254.12 188.664 254.12C190.328 254.12 191.752 254.52 192.936 255.32C194.12 256.088 195.032 257.176 195.672 258.584V254.6H202.632V280.328C202.632 283.208 201.64 285.48 199.656 287.144C197.704 288.808 195.032 289.64 191.64 289.64H183.96ZM191.256 273.32C192.568 273.32 193.592 272.952 194.328 272.216C195.064 271.448 195.432 270.376 195.432 269V264.68C195.432 263.304 195.064 262.248 194.328 261.512C193.592 260.744 192.568 260.36 191.256 260.36C189.912 260.36 188.872 260.744 188.136 261.512C187.432 262.248 187.08 263.304 187.08 264.68V269C187.08 270.376 187.432 271.448 188.136 272.216C188.872 272.952 189.912 273.32 191.256 273.32ZM221.141 281.48C218.805 281.48 216.773 281.048 215.045 280.184C213.317 279.288 211.973 278.056 211.013 276.488C210.085 274.888 209.621 273.032 209.621 270.92V264.68C209.621 262.568 210.085 260.728 211.013 259.16C211.973 257.56 213.317 256.328 215.045 255.464C216.773 254.568 218.805 254.12 221.141 254.12C223.509 254.12 225.541 254.568 227.237 255.464C228.965 256.328 230.293 257.56 231.221 259.16C232.181 260.728 232.661 262.568 232.661 264.68V270.92C232.661 273.032 232.181 274.888 231.221 276.488C230.293 278.056 228.965 279.288 227.237 280.184C225.541 281.048 223.509 281.48 221.141 281.48ZM221.141 275.24C222.549 275.24 223.621 274.872 224.357 274.136C225.093 273.368 225.461 272.296 225.461 270.92V264.68C225.461 263.272 225.093 262.2 224.357 261.464C223.621 260.728 222.549 260.36 221.141 260.36C219.765 260.36 218.693 260.728 217.925 261.464C217.189 262.2 216.821 263.272 216.821 264.68V270.92C216.821 272.296 217.189 273.368 217.925 274.136C218.693 274.872 219.765 275.24 221.141 275.24ZM239.65 289.64V254.6H246.61V259.4C247.186 257.736 248.098 256.44 249.346 255.512C250.594 254.584 252.098 254.12 253.858 254.12C255.554 254.12 257.042 254.568 258.322 255.464C259.602 256.328 260.594 257.528 261.298 259.064C262.034 260.6 262.402 262.392 262.402 264.44V271.16C262.402 273.176 262.034 274.968 261.298 276.536C260.594 278.072 259.602 279.288 258.322 280.184C257.042 281.048 255.554 281.48 253.858 281.48C252.13 281.48 250.642 281.032 249.394 280.136C248.146 279.208 247.234 277.928 246.658 276.296L246.85 282.44V289.64H239.65ZM251.074 275.24C252.386 275.24 253.394 274.872 254.098 274.136C254.834 273.368 255.202 272.296 255.202 270.92V264.68C255.202 263.272 254.834 262.2 254.098 261.464C253.394 260.728 252.386 260.36 251.074 260.36C249.698 260.36 248.642 260.76 247.906 261.56C247.202 262.328 246.85 263.448 246.85 264.92V270.68C246.85 272.152 247.202 273.288 247.906 274.088C248.642 274.856 249.698 275.24 251.074 275.24ZM269.392 289.64V254.6H276.352V259.4C276.928 257.736 277.84 256.44 279.088 255.512C280.336 254.584 281.84 254.12 283.6 254.12C285.296 254.12 286.784 254.568 288.064 255.464C289.344 256.328 290.336 257.528 291.04 259.064C291.776 260.6 292.144 262.392 292.144 264.44V271.16C292.144 273.176 291.776 274.968 291.04 276.536C290.336 278.072 289.344 279.288 288.064 280.184C286.784 281.048 285.296 281.48 283.6 281.48C281.872 281.48 280.384 281.032 279.136 280.136C277.888 279.208 276.976 277.928 276.4 276.296L276.592 282.44V289.64H269.392ZM280.816 275.24C282.128 275.24 283.136 274.872 283.84 274.136C284.576 273.368 284.944 272.296 284.944 270.92V264.68C284.944 263.272 284.576 262.2 283.84 261.464C283.136 260.728 282.128 260.36 280.816 260.36C279.44 260.36 278.384 260.76 277.648 261.56C276.944 262.328 276.592 263.448 276.592 264.92V270.68C276.592 272.152 276.944 273.288 277.648 274.088C278.384 274.856 279.44 275.24 280.816 275.24ZM310.365 281.48C308.029 281.48 305.997 281.048 304.269 280.184C302.541 279.288 301.197 278.056 300.237 276.488C299.309 274.888 298.845 273.032 298.845 270.92V264.68C298.845 262.568 299.309 260.728 300.237 259.16C301.197 257.56 302.541 256.328 304.269 255.464C305.997 254.568 308.029 254.12 310.365 254.12C312.733 254.12 314.765 254.568 316.461 255.464C318.189 256.328 319.517 257.56 320.445 259.16C321.405 260.728 321.885 262.568 321.885 264.68V270.92C321.885 273.032 321.405 274.888 320.445 276.488C319.517 278.056 318.189 279.288 316.461 280.184C314.765 281.048 312.733 281.48 310.365 281.48ZM310.365 275.24C311.773 275.24 312.845 274.872 313.581 274.136C314.317 273.368 314.685 272.296 314.685 270.92V264.68C314.685 263.272 314.317 262.2 313.581 261.464C312.845 260.728 311.773 260.36 310.365 260.36C308.989 260.36 307.917 260.728 307.149 261.464C306.413 262.2 306.045 263.272 306.045 264.68V270.92C306.045 272.296 306.413 273.368 307.149 274.136C307.917 274.872 308.989 275.24 310.365 275.24ZM329.834 281V254.6H336.794V259.592C337.178 257.896 338.01 256.568 339.29 255.608C340.602 254.616 342.234 254.12 344.186 254.12C346.842 254.12 348.922 255.016 350.426 256.808C351.93 258.6 352.682 261.064 352.682 264.2V266.84H345.482V264.68C345.482 263.304 345.114 262.248 344.378 261.512C343.642 260.744 342.602 260.36 341.258 260.36C339.914 260.36 338.874 260.792 338.138 261.656C337.402 262.488 337.034 263.688 337.034 265.256V281H329.834ZM372.487 281C369.799 281 367.687 280.232 366.151 278.696C364.615 277.16 363.847 275.048 363.847 272.36V261.08H356.743V254.6H363.847V247.16H371.047V254.6H381.367V261.08H371.047V272.12C371.047 272.824 371.223 273.4 371.575 273.848C371.959 274.296 372.503 274.52 373.207 274.52H381.127V281H372.487ZM399.589 281.48C396.037 281.48 393.253 280.52 391.237 278.6C389.253 276.68 388.261 274.056 388.261 270.728V254.6H395.461V270.68C395.461 273.72 396.837 275.24 399.589 275.24C400.901 275.24 401.909 274.856 402.613 274.088C403.349 273.288 403.717 272.152 403.717 270.68V254.6H410.917V270.728C410.917 274.088 409.909 276.728 407.893 278.648C405.877 280.536 403.109 281.48 399.589 281.48ZM418.098 281V254.6H425.058V259.4C425.442 257.8 426.258 256.52 427.506 255.56C428.786 254.6 430.338 254.12 432.162 254.12C434.722 254.12 436.77 255.016 438.306 256.808C439.874 258.6 440.658 260.984 440.658 263.96V281H433.458V264.68C433.458 263.304 433.09 262.248 432.354 261.512C431.65 260.744 430.658 260.36 429.378 260.36C428.098 260.36 427.09 260.744 426.354 261.512C425.65 262.248 425.298 263.304 425.298 264.68V281H418.098ZM448.031 281V274.52H456.767V261.08H448.991V254.6H463.967V274.52H471.551V281H448.031ZM460.031 250.424C458.719 250.424 457.663 250.088 456.863 249.416C456.095 248.744 455.711 247.832 455.711 246.68C455.711 245.528 456.095 244.616 456.863 243.944C457.663 243.272 458.719 242.936 460.031 242.936C461.343 242.936 462.383 243.272 463.151 243.944C463.951 244.616 464.351 245.528 464.351 246.68C464.351 247.832 463.951 248.744 463.151 249.416C462.383 250.088 461.343 250.424 460.031 250.424ZM491.453 281C488.765 281 486.653 280.232 485.117 278.696C483.581 277.16 482.813 275.048 482.813 272.36V261.08H475.709V254.6H482.813V247.16H490.013V254.6H500.333V261.08H490.013V272.12C490.013 272.824 490.189 273.4 490.541 273.848C490.925 274.296 491.469 274.52 492.173 274.52H500.093V281H491.453ZM507.514 281V274.52H516.25V261.08H508.474V254.6H523.45V274.52H531.034V281H507.514ZM519.514 250.424C518.202 250.424 517.146 250.088 516.346 249.416C515.578 248.744 515.194 247.832 515.194 246.68C515.194 245.528 515.578 244.616 516.346 243.944C517.146 243.272 518.202 242.936 519.514 242.936C520.826 242.936 521.866 243.272 522.634 243.944C523.434 244.616 523.834 245.528 523.834 246.68C523.834 247.832 523.434 248.744 522.634 249.416C521.866 250.088 520.826 250.424 519.514 250.424ZM548.343 281.48C546.007 281.48 543.959 281.048 542.199 280.184C540.471 279.288 539.127 278.056 538.167 276.488C537.239 274.888 536.775 273.032 536.775 270.92V264.68C536.775 262.568 537.239 260.728 538.167 259.16C539.127 257.56 540.471 256.328 542.199 255.464C543.959 254.568 546.007 254.12 548.343 254.12C550.679 254.12 552.695 254.568 554.391 255.464C556.119 256.328 557.447 257.56 558.375 259.16C559.335 260.728 559.815 262.568 559.815 264.68V269.576H543.639V270.92C543.639 272.584 544.023 273.8 544.791 274.568C545.591 275.336 546.775 275.72 548.343 275.72C549.367 275.72 550.263 275.56 551.031 275.24C551.799 274.92 552.247 274.44 552.375 273.8H559.431C558.919 276.104 557.655 277.96 555.639 279.368C553.623 280.776 551.191 281.48 548.343 281.48ZM543.639 264.68V265.304L552.951 265.208V264.584C552.951 262.952 552.567 261.688 551.799 260.792C551.063 259.896 549.911 259.448 548.343 259.448C546.775 259.448 545.591 259.912 544.791 260.84C544.023 261.768 543.639 263.048 543.639 264.68ZM576.932 281.48C574.756 281.48 572.852 281.144 571.22 280.472C569.588 279.768 568.308 278.808 567.38 277.592C566.484 276.376 566.036 274.952 566.036 273.32H573.092C573.092 274.216 573.428 274.888 574.1 275.336C574.772 275.784 575.716 276.008 576.932 276.008H579.044C580.356 276.008 581.364 275.784 582.068 275.336C582.804 274.888 583.172 274.248 583.172 273.416C583.172 272.616 582.884 272.04 582.308 271.688C581.732 271.304 580.852 271.048 579.668 270.92L573.62 270.2C571.284 269.912 569.492 269.048 568.244 267.608C566.996 266.136 566.372 264.312 566.372 262.136C566.372 256.792 569.796 254.12 576.644 254.12H578.9C582.132 254.12 584.708 254.824 586.628 256.232C588.548 257.64 589.508 259.528 589.508 261.896H582.452C582.452 261.128 582.132 260.536 581.492 260.12C580.884 259.704 580.02 259.496 578.9 259.496H576.644C575.524 259.496 574.676 259.704 574.1 260.12C573.524 260.536 573.236 261.112 573.236 261.848C573.236 262.584 573.508 263.08 574.052 263.336C574.628 263.592 575.428 263.784 576.452 263.912L582.212 264.632C584.804 264.952 586.756 265.864 588.068 267.368C589.38 268.872 590.036 270.856 590.036 273.32C590.036 275.912 589.108 277.928 587.252 279.368C585.396 280.776 582.66 281.48 579.044 281.48H576.932Z" fill="#76E1FE"/>
</svg>
